<svg width="76" height="76" viewBox="0 0 76 76" fill="none" xmlns="http://www.w3.org/2000/svg">
<circle cx="38" cy="38.0002" r="38" fill="#FBBE22"/>
<path d="M39.0759 42.768C38.4475 42.768 37.9375 41.748 37.9375 40.4913C37.9375 39.2345 38.4475 38.2145 39.0759 38.2145C39.7043 38.2145 40.2143 39.2345 40.2143 40.4913C40.2143 41.748 39.7043 42.768 39.0759 42.768Z" fill="white"/>
<path d="M44.3762 20.278C44.4994 20.385 44.5981 20.5172 44.6656 20.6657C44.7332 20.8142 44.7681 20.9755 44.7679 21.1386V22.277H45.9062C46.812 22.277 47.6807 22.6368 48.3211 23.2773C48.9616 23.9178 49.3214 24.7864 49.3214 25.6922V54.152H52.7366C53.0385 54.152 53.3281 54.272 53.5416 54.4854C53.7551 54.6989 53.875 54.9885 53.875 55.2904C53.875 55.5923 53.7551 55.8819 53.5416 56.0954C53.3281 56.3089 53.0385 56.4288 52.7366 56.4288H23.1384C22.8365 56.4288 22.5469 56.3089 22.3334 56.0954C22.1199 55.8819 22 55.5923 22 55.2904C22 54.9885 22.1199 54.6989 22.3334 54.4854C22.5469 54.272 22.8365 54.152 23.1384 54.152H26.5536V23.4154C26.5536 23.1411 26.6527 22.8761 26.8326 22.669C27.0124 22.462 27.261 22.3268 27.5326 22.2884L43.4701 20.0116C43.6314 19.9886 43.7958 20.0004 43.9521 20.0464C44.1084 20.0924 44.2531 20.1713 44.3762 20.278ZM45.9062 24.5538H44.7679V54.152H47.0446V25.6922C47.0446 25.3903 46.9247 25.1007 46.7112 24.8872C46.4977 24.6737 46.2082 24.5538 45.9062 24.5538ZM28.8304 24.4035V54.152H42.4911V22.4523L28.8304 24.4035Z" fill="white"/>
</svg>
