<svg width="76" height="76" viewBox="0 0 76 76" fill="none" xmlns="http://www.w3.org/2000/svg">
<circle cx="38" cy="38" r="38" fill="#EA36E3"/>
<path fill-rule="evenodd" clip-rule="evenodd" d="M27.7281 30.3584L32.0864 26L33.6096 27.5232L27.7111 33.4217L24 29.7111L25.5407 28.1704L27.7281 30.3584ZM51.922 30.8287H35.5851V28.5124H51.922V30.8287Z" fill="white"/>
<path fill-rule="evenodd" clip-rule="evenodd" d="M27.7281 30.3584L32.0864 26L33.6096 27.5232L27.7111 33.4217L24 29.7111L25.5407 28.1704L27.7281 30.3584ZM51.922 30.8287H35.5851V28.5124H51.922V30.8287Z" fill="white"/>
<path fill-rule="evenodd" clip-rule="evenodd" d="M27.7281 49.0337L32.0864 44.6754L33.6096 46.1986L27.7111 52.0971L24 48.3865L25.5407 46.8458L27.7281 49.0337ZM51.922 49.5041H35.5851V47.1878H51.922V49.5041Z" fill="white"/>
<path fill-rule="evenodd" clip-rule="evenodd" d="M27.7281 49.0337L32.0864 44.6754L33.6096 46.1986L27.7111 52.0971L24 48.3865L25.5407 46.8458L27.7281 49.0337ZM51.922 49.5041H35.5851V47.1878H51.922V49.5041Z" fill="white"/>
<path fill-rule="evenodd" clip-rule="evenodd" d="M27.7281 39.696L32.0864 35.3376L33.6096 36.8609L27.7111 42.7594L24 39.0488L25.5407 37.5081L27.7281 39.696ZM51.922 40.1664H35.5851V37.8501H51.922V40.1664Z" fill="white"/>
<path fill-rule="evenodd" clip-rule="evenodd" d="M27.7281 39.696L32.0864 35.3376L33.6096 36.8609L27.7111 42.7594L24 39.0488L25.5407 37.5081L27.7281 39.696ZM51.922 40.1664H35.5851V37.8501H51.922V40.1664Z" fill="white"/>
</svg>
