<svg width="76" height="76" viewBox="0 0 76 76" fill="none" xmlns="http://www.w3.org/2000/svg">
<circle cx="38" cy="37.9999" r="38" fill="#6E3FF4"/>
<path fill-rule="evenodd" clip-rule="evenodd" d="M48.4 26.5453H47.1V25.2726C47.1 24.5726 46.515 23.9999 45.8 23.9999C45.085 23.9999 44.5 24.5726 44.5 25.2726V26.5453H31.5V25.2726C31.5 24.5726 30.915 23.9999 30.2 23.9999C29.485 23.9999 28.9 24.5726 28.9 25.2726V26.5453H27.6C26.17 26.5453 25 27.6908 25 29.0908V49.4544C25 50.8544 26.17 51.9999 27.6 51.9999H48.4C49.83 51.9999 51 50.8544 51 49.4544V29.0908C51 27.6908 49.83 26.5453 48.4 26.5453ZM47.1 49.4544H28.9C28.185 49.4544 27.6 48.8817 27.6 48.1817V32.909H48.4V48.1817C48.4 48.8817 47.815 49.4544 47.1 49.4544Z" fill="white"/>
</svg>
