<svg width="76" height="76" viewBox="0 0 76 76" fill="none" xmlns="http://www.w3.org/2000/svg">
<circle cx="38" cy="38" r="38" fill="#FFEBEB"/>
<path fill-rule="evenodd" clip-rule="evenodd" d="M38 31.6C34.2129 31.6 31.1429 34.6892 31.1429 38.5C31.1429 42.3108 34.2129 45.4 38 45.4C41.7871 45.4 44.8571 42.3108 44.8571 38.5C44.8571 34.6892 41.7871 31.6 38 31.6ZM33.4286 38.5C33.4286 35.9595 35.4753 33.9 38 33.9C40.5247 33.9 42.5714 35.9595 42.5714 38.5C42.5714 41.0405 40.5247 43.1 38 43.1C35.4753 43.1 33.4286 41.0405 33.4286 38.5Z" fill="#FF3737"/>
<path fill-rule="evenodd" clip-rule="evenodd" d="M38 27C30.5908 27 24.2794 31.6434 22.0622 38.1257C21.9793 38.3683 21.9793 38.6317 22.0622 38.8743C24.2794 45.3566 30.5908 50 38 50C45.4092 50 51.7206 45.3566 53.9378 38.8743C54.0207 38.6317 54.0207 38.3683 53.9378 38.1257C51.7206 31.6434 45.4092 27 38 27ZM38 47.7C31.6906 47.7 26.3628 43.8399 24.3577 38.5C26.3628 33.1601 31.6906 29.3 38 29.3C44.3094 29.3 49.6372 33.1601 51.6423 38.5C49.6372 43.8399 44.3094 47.7 38 47.7Z" fill="#FF3737"/>
</svg>
