<svg width="76" height="76" viewBox="0 0 76 76" fill="none" xmlns="http://www.w3.org/2000/svg">
<circle cx="38" cy="38" r="38" fill="#3FEA30" fill-opacity="0.1"/>
<path fill-rule="evenodd" clip-rule="evenodd" d="M55.2149 38.3827C54.9251 38.6774 54.5629 38.8249 54.1283 38.8249C53.6936 38.8249 53.259 38.6774 52.9692 38.4565C52.6795 38.1618 52.4621 37.7936 52.4621 37.3515V37.2777C52.4621 36.3939 53.259 35.8046 54.1283 35.8046C54.5629 35.8046 54.9251 35.9518 55.2149 36.2465C55.4323 36.4677 55.5771 36.7621 55.6495 37.0568V37.4989C55.5771 37.8671 55.4323 38.1618 55.2149 38.3827ZM53.6212 37.2042C53.6212 37.4252 53.8385 37.6461 54.0559 37.6461C54.3456 37.6461 54.4905 37.4989 54.4905 37.2042C54.4905 36.9833 54.2731 36.7621 54.0559 36.7621C53.9834 36.7621 53.8385 36.8358 53.7661 36.9096C53.7235 36.9528 53.681 36.996 53.6531 37.0543C53.6335 37.0953 53.6212 37.1434 53.6212 37.2042Z" fill="#3FEA30"/>
<path fill-rule="evenodd" clip-rule="evenodd" d="M23.1954 36.6151C23.1592 36.4677 23.1048 36.2832 23.0323 36.099C22.9598 35.915 22.8694 35.7311 22.7608 35.5839C22.471 35.2892 22.1088 34.9945 21.6741 34.9945C20.8049 34.9945 19.8631 35.952 19.8631 36.7623V36.8361C19.8631 37.278 20.1529 37.6464 20.4426 37.9411C20.7324 38.2358 21.167 38.383 21.6017 38.383C22.0364 38.383 22.471 38.2358 22.7608 37.9411C22.9781 37.7201 23.1954 37.4254 23.1954 37.057V36.6151ZM21.2395 36.8361C21.2395 36.736 21.2729 36.67 21.317 36.6146C21.3379 36.5886 21.3611 36.565 21.3844 36.5414C21.4568 36.4677 21.6017 36.3942 21.6741 36.3942C21.8915 36.3942 22.1088 36.6151 22.1088 36.8361C22.1088 37.057 21.8915 37.278 21.6741 37.278C21.3844 37.278 21.2395 37.057 21.2395 36.8361Z" fill="#3FEA30"/>
<path fill-rule="evenodd" clip-rule="evenodd" d="M50.9408 24.9025C50.5786 24.3869 50.0715 24.0922 49.492 24.0184C48.9124 23.9447 48.3329 24.0922 47.8983 24.4606L44.8557 26.965C44.421 27.3334 44.1312 27.8491 44.0588 28.4384V29.0276C43.9139 29.0276 43.769 29.0462 43.6241 29.0646C43.4793 29.0829 43.3344 29.1013 43.1895 29.1013C42.9722 29.1013 42.8273 29.175 42.61 29.175C41.4509 29.2488 40.2194 29.6169 38.9154 30.1326L38.0461 30.5747C36.7421 29.9116 35.5106 29.4697 34.2791 29.2488C33.4098 29.1013 32.6129 29.0276 31.8885 29.175C32.0334 28.3647 31.7437 27.4807 31.0917 26.965L28.0491 24.4606C27.6144 24.0922 27.0349 23.9447 26.4553 24.0184C25.8758 24.0922 25.3687 24.3869 25.0065 24.9025L17.4001 35.952C16.7481 36.9098 16.893 38.3092 17.8347 39.1196L20.8773 41.6243C21.2395 41.9189 21.6742 42.0662 22.1813 42.0662H22.471C22.8332 41.9927 23.123 41.8452 23.4128 41.6243C23.6301 42.2874 23.9923 42.9502 24.4994 43.6133C24.3545 44.3499 24.4994 45.1602 24.8616 45.7496C25.3687 46.6334 26.238 47.149 27.2522 47.149C27.542 47.149 27.7593 47.0755 27.9766 47.0755C28.0096 47.2766 28.0576 47.4626 28.1207 47.6403C28.196 47.8528 28.2929 48.0534 28.4113 48.254C28.9184 49.1381 29.7877 49.6537 30.8019 49.6537C31.309 49.6537 31.8161 49.5063 32.3232 49.2118C32.3956 49.5063 32.5405 49.8009 32.6854 50.0956C33.1201 50.7587 33.6996 51.2744 34.424 51.4216C34.7862 51.4953 35.1484 51.4953 35.4382 51.4216C35.4792 51.6301 35.5434 51.8622 35.6309 52.0911C35.6979 52.2667 35.7786 52.4404 35.8729 52.6003C36.3799 53.4841 37.2492 54 38.2634 54C38.843 54 39.35 53.8525 39.7847 53.4841L41.8131 52.0847C42.5375 51.569 42.9722 50.7587 43.0446 49.8747C43.5517 49.8009 43.9864 49.5063 44.3486 49.2118C44.4041 49.1666 44.4561 49.1182 44.5051 49.0668C44.5487 49.0212 44.5898 48.9732 44.6287 48.9238C44.8306 48.6671 44.9701 48.3682 45.073 48.1068C45.2903 48.1803 45.5076 48.254 45.7974 48.254C46.3045 48.3278 46.8116 48.1803 47.2463 47.9593L47.8258 47.5912L48.1155 47.37L48.4053 47.0018C48.4053 46.9651 48.4235 46.9467 48.4415 46.9281C48.4597 46.9095 48.4778 46.8911 48.4778 46.8543C49.492 47.8856 51.1581 47.8856 52.2448 46.9281C53.1865 46.044 53.4763 44.5709 52.9692 43.3921C53.017 43.1004 53.0649 42.8087 53.0919 42.5168C53.1057 42.3666 53.1141 42.2164 53.1141 42.0662C53.7661 42.3608 54.5629 42.2136 55.1425 41.698L58.185 39.1933C58.6197 38.8251 58.9094 38.3092 58.9819 37.7201C59.0543 36.9833 58.9094 36.3942 58.5473 35.952L50.9408 24.9025ZM47.536 31.0904C47.4636 31.0166 47.3187 30.7957 47.2463 30.6482C47.1924 30.566 47.1486 30.494 47.1111 30.4325L47.108 30.4273C47.0461 30.3255 47.0013 30.252 46.9565 30.2063L46.0872 28.8803C46.0525 28.8098 46.0344 28.7225 46.0409 28.6423C46.048 28.5551 46.0841 28.4767 46.1596 28.4384L49.2022 25.9338C49.2747 25.86 49.4195 25.86 49.492 26.0075L57.0984 37.057C57.1385 37.0977 57.1564 37.1385 57.1644 37.1792C57.1708 37.2122 57.1708 37.2452 57.1708 37.278C57.1708 37.3147 57.1527 37.3517 57.1347 37.3887C57.1243 37.4096 57.114 37.4304 57.107 37.4515C57.1018 37.4674 57.0984 37.4833 57.0984 37.4992L53.911 40.0774C53.8887 40.0774 53.8734 40.0843 53.8606 40.094C53.844 40.1064 53.8319 40.1233 53.8151 40.1354C53.8026 40.1446 53.7875 40.1511 53.7661 40.1511C53.7661 40.1511 53.6936 40.1511 53.6212 40.0774L49.4195 33.9632L47.536 31.0904ZM45.5801 39.8564C45.5076 39.7089 45.5076 39.5617 45.5076 39.4143C45.5076 39.1196 45.6525 38.8986 45.7974 38.6777C46.1596 38.3092 46.7391 38.383 47.0289 38.8251L50.9408 43.9078C51.303 44.3499 51.2306 45.0128 50.8684 45.3812C50.8027 45.448 50.7073 45.4996 50.6025 45.5361C50.4758 45.58 50.3353 45.6021 50.2164 45.6021C50.1348 45.6021 50.0532 45.5813 49.9755 45.5438C49.8461 45.4812 49.7274 45.372 49.6368 45.2337L45.5801 39.8564ZM29.9326 28.8803L28.4113 31.0904C28.4113 31.0904 28.3846 31.1174 28.3637 31.1552C28.3501 31.1795 28.3389 31.2085 28.3389 31.2376L22.3262 40.0036C22.3097 40.0205 22.2969 40.0334 22.2862 40.0433C22.2759 40.053 22.2674 40.06 22.2594 40.0649C22.2392 40.0774 22.2212 40.0774 22.1813 40.0774H22.0364L18.9938 37.5727C18.8489 37.4992 18.8489 37.278 18.9214 37.1308L26.5278 26.081C26.5694 26.0388 26.5871 26.0209 26.6084 26.0132C26.6182 26.0097 26.6288 26.0082 26.6429 26.0077L26.6727 26.0075C26.6727 26.0075 26.7024 26.0075 26.7238 26.0269C26.7358 26.0378 26.7451 26.0547 26.7451 26.081L29.7877 28.5857C30.005 28.5857 30.005 28.7329 29.9326 28.8803ZM25.1514 39.267L30.4397 31.606C32.1783 30.7219 34.2067 31.0904 35.9453 31.8269C35.5106 32.1216 35.1484 32.3426 35.076 32.4163C33.8445 33.3001 32.9027 34.3314 32.4681 35.3629C31.9609 36.3942 31.8885 37.4254 32.3232 38.2358C32.7578 38.9724 33.5547 39.4143 34.4965 39.488C35.3657 39.5617 36.3799 39.267 37.4666 38.6777L41.0162 36.3942C41.306 36.2467 41.8131 36.0995 41.958 36.1732C42.0304 36.1732 42.1028 36.3942 42.1028 36.3942C42.1141 36.4284 42.1254 36.4699 42.1384 36.5176C42.1708 36.6372 42.2137 36.7951 42.2932 36.9736C42.3849 37.1797 42.5253 37.413 42.7548 37.6464C42.9722 37.8673 43.3344 38.2358 43.8415 38.4567C43.8415 38.4935 43.8234 38.5302 43.8053 38.5672C43.795 38.5883 43.7847 38.6091 43.7777 38.63C43.7724 38.6459 43.769 38.6618 43.769 38.6777C42.9722 38.5304 42.1028 38.7514 41.4509 39.3408C41.0887 39.6352 40.8713 40.0774 40.7264 40.4455C39.7847 40.0774 38.7705 40.2983 37.9736 40.9614C37.6115 40.5193 37.1044 40.2246 36.5248 40.0774C35.8004 39.9299 35.076 40.0774 34.424 40.5193L33.6996 41.0349C33.6271 40.6667 33.4822 40.2983 33.3373 40.0036C32.9027 39.3408 32.3232 38.8251 31.5988 38.6777C30.8743 38.5304 30.0775 38.6777 29.4255 39.1196L25.8033 41.698C25.7671 41.698 25.749 41.7164 25.731 41.7347L25.7232 41.7427C25.7073 41.7581 25.6896 41.7715 25.6585 41.7715C25.079 40.8139 24.9341 40.0036 25.1514 39.267ZM48.5502 37.5727C47.9707 36.9098 47.1738 36.4677 46.377 36.4677C46.0147 36.4677 45.6525 36.5414 45.2903 36.6889C44.1312 36.5414 43.9864 35.952 43.9864 35.952V35.8785C43.769 34.9208 43.1895 34.4789 42.7548 34.2579C41.5958 33.7423 40.2194 34.4789 40.0745 34.5526L36.5972 36.8361C35.8729 37.278 35.1484 37.4992 34.6413 37.4254C34.3516 37.4254 34.1342 37.3517 34.0618 37.2045C33.9893 37.057 33.9893 36.6889 34.2067 36.1732C34.5688 35.4364 35.2933 34.6998 36.235 33.9632L36.3075 33.8895C36.6697 33.5948 37.9736 32.6373 39.7123 31.9007C41.3784 31.1638 43.6966 30.5747 45.5801 31.5323L50.8684 39.1933C51.0133 39.7089 51.1581 40.2246 51.1581 40.7402L48.5502 37.5727ZM26.5278 44.7181C26.3829 44.4971 26.3105 44.2024 26.3829 43.9078C26.4553 43.6133 26.6002 43.3921 26.8176 43.2449L30.4397 40.6667C30.5845 40.593 30.7294 40.5193 30.8743 40.5193C31.1641 40.5193 31.4539 40.6667 31.5988 40.9614C31.8885 41.477 31.7437 42.1399 31.309 42.4346L27.6869 45.0128C27.4695 45.1602 27.2522 45.1602 27.0349 45.1602C26.8176 45.0865 26.6727 44.9393 26.5278 44.7181ZM30.0775 47.2228C29.7877 46.7071 29.9326 46.044 30.3672 45.7496L35.5106 42.1399C35.6555 42.0662 35.8004 41.9927 35.9453 41.9927H36.0901C36.3075 42.0662 36.5248 42.2136 36.6697 42.4346C36.9595 42.9502 36.8146 43.6133 36.3799 43.9078L33.4822 45.8968C33.4098 45.9705 33.3373 46.044 33.1924 46.1178L31.2365 47.5174C31.0192 47.6647 30.8019 47.6647 30.5845 47.6647C30.3672 47.5912 30.1499 47.4437 30.0775 47.2228ZM34.1342 48.1803C34.2067 47.9593 34.2791 47.8121 34.424 47.6647L36.7421 46.044C36.8048 46.0122 36.8675 45.9941 36.936 45.9899C37.0259 45.9842 37.1259 46.0023 37.2492 46.044C37.3511 46.0785 37.4531 46.1294 37.5475 46.1965C37.6545 46.2722 37.7519 46.3687 37.8288 46.4862C37.9736 46.7071 38.0461 47.0018 37.9736 47.2965C37.935 47.4144 37.8964 47.5112 37.8577 47.5984C37.824 47.6746 37.7902 47.7434 37.7563 47.8121L35.5831 49.359C35.3657 49.5063 35.1484 49.5063 34.9311 49.5063C34.7137 49.4328 34.4965 49.2853 34.3516 49.0644C34.1342 48.7697 34.0618 48.475 34.1342 48.1803ZM37.4666 51.4953C37.2492 51.0534 37.2492 50.5378 37.6115 50.1694L39.7847 48.6224C40.002 48.475 40.2194 48.475 40.4367 48.475C40.654 48.5487 40.8713 48.6959 41.0162 48.9171C41.306 49.4328 41.1611 50.0956 40.7264 50.3903L38.6981 51.8637C38.4808 52.0109 38.2634 52.0109 38.0461 52.0109C37.8288 51.9372 37.6115 51.79 37.4666 51.4953ZM41.1611 46.7071L38.9879 43.9815C38.843 43.7605 38.7705 43.5396 38.7705 43.3186C38.7705 43.0239 38.9154 42.7293 39.1328 42.5083C39.2776 42.3608 39.4949 42.2874 39.7847 42.2874C39.8629 42.2874 39.941 42.3065 40.0157 42.341C40.1489 42.4028 40.2714 42.514 40.3643 42.6555L43.1895 46.2652C43.3344 46.4862 43.4068 46.7809 43.4068 47.0755C43.4068 47.37 43.262 47.5912 43.0446 47.8121C42.8997 47.9593 42.7548 48.0331 42.5375 48.0331C42.2477 47.2965 41.7407 46.9281 41.1611 46.7071ZM42.6824 40.7402C42.8273 40.593 43.0446 40.5193 43.262 40.5193C43.5517 40.5193 43.769 40.6667 43.9139 40.8877L46.884 44.8655C46.9565 45.0128 46.9565 45.1602 46.9565 45.3074C46.9565 45.6021 46.8116 45.8231 46.5943 46.044C46.4494 46.1915 46.2321 46.2652 45.9423 46.2652C45.8373 46.2652 45.7324 46.2307 45.6355 46.1704C45.5319 46.1056 45.4376 46.011 45.3627 45.8968L42.5375 42.2874C42.3926 42.0662 42.3202 41.7715 42.3202 41.477C42.3926 41.1824 42.5375 40.9614 42.6824 40.7402Z" fill="#3FEA30"/>
</svg>
