<svg width="76" height="76" viewBox="0 0 76 76" fill="none" xmlns="http://www.w3.org/2000/svg">
<circle cx="38" cy="38" r="38" fill="#6E3FF4" fill-opacity="0.1"/>
<path d="M24.384 40.3942L24.489 40.4346C24.5891 40.466 24.6852 40.51 24.7754 40.5658C24.7774 40.5859 24.7774 40.6062 24.7754 40.6263C24.7754 40.8382 24.742 41.1309 24.7181 41.3782C24.6561 41.9534 24.6179 42.3015 24.7944 42.5791C24.9417 42.7878 25.1011 42.9866 25.2717 43.1745C25.0814 43.4284 24.9908 43.75 25.0187 44.0726C25.1191 44.4396 25.3141 44.7698 25.5818 45.0263C25.6953 45.1572 25.799 45.2972 25.892 45.4451C25.8564 45.6058 25.8118 45.7642 25.7584 45.9194C25.5736 46.4196 25.4782 46.9516 25.4769 47.4886C25.5675 48.8712 26.6079 49.7946 28.5644 50.2285C29.71 50.4485 30.8759 50.5264 32.0385 50.4606C32.2819 50.4606 32.573 50.4606 32.7544 50.4606C32.9604 50.9807 33.1155 51.5218 33.2173 52.0753C33.2745 52.3528 33.3318 52.6303 33.3986 52.8776C33.6849 53.9876 34.248 56.2633 34.248 56.2633L34.4342 57L48.7506 49.7946L48.5788 49.2597C48.5788 49.2294 47.4669 45.7276 48.3115 43.3813C48.7914 42.2702 49.3665 41.2078 50.0295 40.2075C51.3514 38.063 52.783 35.6411 52.9596 33.2796C53.1791 29.8586 52.7878 21.6187 44.3697 19.0958C40.7763 18.0211 37.4883 17.7335 34.5821 18.2481C32.6177 18.5391 30.7792 19.44 29.2993 20.8366C28.1303 22.0557 27.2562 23.5545 26.751 25.2063L26.6365 25.5545C26.5172 25.9279 26.3883 26.2962 26.2595 26.6696C25.9882 27.4173 25.7618 28.1825 25.5818 28.9604C25.4147 29.7051 25.3968 30.4786 25.5294 31.231C25.5866 31.5388 25.6534 31.8012 25.7202 32.0434C25.8307 32.2996 25.8826 32.5797 25.8718 32.8611C25.8611 33.1424 25.7879 33.4172 25.6582 33.6631C25.2758 34.4799 24.805 35.2469 24.2552 35.9489C24.1788 36.0498 24.0882 36.1507 23.9975 36.2566C23.5203 36.8218 22.8188 37.5988 23.0431 38.6231C23.1132 39.0115 23.2721 39.3759 23.5058 39.6845C23.7395 39.9932 24.041 40.2368 24.384 40.3942ZM24.8613 37.1245C24.9662 37.0034 25.0712 36.8874 25.1619 36.7713C25.7659 35.9949 26.2846 35.1485 26.7081 34.2484C26.9058 33.865 27.0219 33.4406 27.0483 33.0048C27.0747 32.569 27.0107 32.1324 26.8608 31.7255C26.8035 31.5085 26.7415 31.2764 26.6938 31.004C26.5892 30.4272 26.6038 29.8334 26.7367 29.2631C26.9119 28.5362 27.1303 27.8216 27.3905 27.1237C27.5289 26.7402 27.6625 26.3568 27.7818 25.9682L27.8868 25.6453C28.3317 24.183 29.1007 22.8544 30.1297 21.7701C31.4439 20.554 33.0634 19.7671 34.7921 19.5045C37.5217 19 40.6379 19.3027 44.0548 20.327C51.3514 22.5018 52.0195 29.3237 51.7666 33.1938C51.6329 35.2122 50.2442 37.508 49.0178 39.5213C48.311 40.5904 47.7007 41.7274 47.1949 42.9171C46.4027 45.107 46.9849 47.9629 47.2903 49.1134L35.2072 55.1684C35.0164 54.4064 34.73 53.2207 34.5344 52.5092C34.4723 52.2771 34.4198 52.0046 34.3673 51.7624C34.2425 51.0121 34.0159 50.2847 33.6945 49.6028C33.4988 49.2547 33.1839 49.1891 32.5778 49.1891H32.0195C30.9497 49.2545 29.8764 49.1851 28.8221 48.9822C26.7558 48.523 26.7033 47.6703 26.6842 47.3928C26.6999 47.0203 26.7758 46.6534 26.9085 46.3079C27.0163 46.0172 27.0822 45.7111 27.1042 45.3997C27.0456 44.9349 26.8325 44.5074 26.5029 44.1937C26.4313 44.1079 26.3358 43.9868 26.2786 43.9011C26.3419 43.8033 26.4192 43.7165 26.5076 43.6437L27.0135 43.2199L26.5363 42.7153C26.2834 42.4479 25.9923 42.1249 25.8539 41.9584C25.8539 41.8373 25.8825 41.6456 25.8968 41.5093C25.9357 41.2133 25.958 40.9151 25.9636 40.6162C25.9597 40.2901 25.8499 39.9754 25.6527 39.7246C25.4555 39.4738 25.1829 39.3023 24.8803 39.2387L24.7897 39.2034C24.6276 39.1219 24.4868 38.9997 24.3795 38.8476C24.2723 38.6955 24.2017 38.518 24.1741 38.3305C24.1025 37.9672 24.4986 37.5131 24.8469 37.1144L24.8613 37.1245ZM28.7649 29.5558L30.2681 30.1209C30.3158 30.2521 30.3683 30.3783 30.4208 30.5044L29.7288 32.0182L29.9436 32.3209C30.3282 32.8709 30.7882 33.3573 31.3084 33.764L31.5995 33.9911L33.0312 33.2594C33.1552 33.32 33.2745 33.3755 33.3986 33.4259L33.9331 35.0154L34.2815 35.0759C34.9302 35.1769 35.5893 35.1769 36.238 35.0759L36.5912 35.0154L37.1256 33.4259C37.2497 33.3755 37.369 33.32 37.4883 33.2594L38.92 33.9911L39.2063 33.764C39.7426 33.3619 40.2174 32.8752 40.6141 32.3209L40.824 32.0182L40.1369 30.5044C40.1894 30.3783 40.2418 30.2521 40.2848 30.1209L41.8071 29.5255L41.8596 29.1521C41.9551 28.4662 41.9551 27.7693 41.8596 27.0834L41.8071 26.715L40.3039 26.1499C40.2609 26.0136 40.2084 25.8875 40.156 25.7613L40.8431 24.2476L40.6332 23.9449C40.2435 23.3882 39.777 22.8967 39.2492 22.4866L38.9438 22.2293L37.5122 22.9609C37.3943 22.8998 37.2732 22.8459 37.1495 22.7995L36.6007 21.2201L36.2476 21.1596C35.5989 21.0586 34.9397 21.0586 34.291 21.1596L33.9426 21.2201L33.4082 22.8146C33.2841 22.86 33.1648 22.9155 33.0407 22.9761L31.6091 22.2444L31.318 22.4715C30.7916 22.8816 30.3267 23.3732 29.9388 23.9297L29.7241 24.2375L30.416 25.7513C30.3635 25.8774 30.311 26.0035 30.2633 26.1398L28.7601 26.7049L28.7076 27.0733C28.6058 27.7587 28.6058 28.4567 28.7076 29.142L28.7649 29.5558ZM29.8481 27.6737L31.2177 27.1691L31.3084 26.8714C31.3857 26.608 31.4864 26.3529 31.6091 26.1095L31.7522 25.8269L31.1223 24.4293C31.3091 24.1812 31.5168 23.9516 31.7427 23.743L32.9166 24.3334H33.2173L33.3461 24.2577C33.574 24.1266 33.8138 24.0201 34.0619 23.9398L34.3483 23.849L34.8255 22.3958C35.1225 22.3705 35.4209 22.3705 35.7179 22.3958L36.1951 23.849L36.4814 23.9398C36.7292 24.021 36.9689 24.1275 37.1972 24.2577L37.3308 24.3334H37.6172L38.8007 23.743C39.0238 23.94 39.2313 24.156 39.421 24.3889L38.7911 25.7866L38.9343 26.0691C39.055 26.3135 39.1556 26.5684 39.2349 26.8311L39.3256 27.1288L40.6952 27.6333C40.6952 27.7898 40.6952 27.9462 40.6952 28.1077C40.6952 28.2691 40.6952 28.4255 40.6952 28.582L39.3256 29.0865L39.2349 29.3842C39.1597 29.6534 39.0623 29.9152 38.9438 30.1663L38.8007 30.4489L39.421 31.8466C39.2312 32.0887 39.0238 32.3147 38.8007 32.5227L37.6267 31.9273H37.3404L37.2115 32.003C36.9842 32.1353 36.7443 32.2419 36.4957 32.3209L36.2046 32.4117L35.7274 33.87C35.4304 33.8952 35.132 33.8952 34.835 33.87L34.3578 32.4117L34.0715 32.3209C33.8226 32.2428 33.5826 32.1362 33.3557 32.003L33.2173 31.9273H32.9309L31.7427 32.5227C31.5135 32.3166 31.3012 32.0904 31.108 31.8466L31.7379 30.4489L31.5947 30.1663C31.4769 29.9224 31.3811 29.6673 31.3084 29.4044L31.2177 29.1067L29.8481 28.6021C29.8481 28.4457 29.8481 28.2893 29.8481 28.1278C29.8481 27.9664 29.8195 27.7797 29.8338 27.6434L29.8481 27.6737ZM41.7785 32.1594L42.4418 32.9516C42.4418 32.9516 42.4418 32.9769 42.4418 32.987L41.6305 33.5975L41.6735 33.9709C41.6997 34.1908 41.7411 34.4084 41.7976 34.6218C41.8563 34.8357 41.9296 35.0448 42.0171 35.2475L42.165 35.5906L43.1624 35.6562V35.6814L42.9954 36.7259L43.2769 36.958C43.609 37.2292 43.9773 37.4469 44.3697 37.6039L44.7086 37.7351L45.4578 37.0337H45.4912L46.0591 37.8713L46.4122 37.8259C46.6208 37.7994 46.8267 37.7538 47.0278 37.6897C47.2307 37.6315 47.4286 37.5556 47.6196 37.4626L47.9441 37.3011L48.0109 36.2466H48.0347L49.0226 36.4232L49.2421 36.1255C49.4988 35.7753 49.7032 35.3856 49.8482 34.97L49.977 34.6117L49.3137 33.8195C49.3117 33.8078 49.3117 33.7959 49.3137 33.7842L50.1249 33.1737L50.082 32.8003C50.0565 32.5798 50.0134 32.3621 49.9531 32.1494C49.8982 31.9348 49.8263 31.7255 49.7384 31.5237L49.5905 31.1856L48.5931 31.115L48.7601 30.0705L48.4595 29.798C48.1273 29.5254 47.757 29.3092 47.3619 29.1572L47.0278 29.0209L46.2786 29.7223H46.2452L45.6678 28.8645L45.3146 28.9099C45.1067 28.9376 44.9009 28.9815 44.699 29.0411C44.4964 29.1024 44.2986 29.18 44.1073 29.2732L43.7828 29.4297L43.716 30.4741H43.6873L42.709 30.3026L42.4895 30.6003C42.233 30.9514 42.0272 31.3408 41.8787 31.7558L41.7785 32.1594ZM43.1624 31.9072C43.191 31.8466 43.2244 31.7861 43.2626 31.7205L43.9355 31.8416L44.2123 31.7558L44.3173 31.6498C44.417 31.5448 44.5274 31.4517 44.6465 31.3723L44.8995 31.2007L44.9281 30.3026L45.0235 30.2723L45.1237 30.242L45.601 30.9686H45.9016C46.0428 30.9707 46.1835 30.9876 46.3216 31.0191L46.4743 31.0544L46.751 30.9686L47.2569 30.4943L47.4335 30.6003L47.2903 31.4833L47.5003 31.7154C47.6002 31.8235 47.6897 31.9418 47.7675 32.0686L47.9345 32.331L48.7697 32.3865L48.7983 32.4874L48.8269 32.5934L48.1397 33.098V33.4108C48.1367 33.5617 48.1207 33.712 48.092 33.8599L48.0252 34.1727L48.5883 34.8438L48.4881 35.0305L47.8105 34.9094L47.5337 34.9952L47.4287 35.1012C47.3269 35.2052 47.2167 35.2998 47.0994 35.3837L46.8465 35.5553L46.794 36.4484L46.6985 36.4787H46.5983L46.1211 35.7521H45.8157C45.6761 35.75 45.537 35.733 45.4005 35.7016L45.2478 35.6663L44.971 35.7521L44.4652 36.2264C44.4043 36.1949 44.3454 36.1595 44.2886 36.1204L44.4318 35.2374L44.1932 35.0204C44.0961 34.9097 44.0067 34.7917 43.9259 34.6672L43.7637 34.4048L42.9476 34.3392L42.919 34.2383L42.8904 34.1324L43.5776 33.6278V33.3301C43.5821 33.179 43.5997 33.0287 43.6301 32.881L43.6969 32.5682L43.1624 31.9072Z" fill="#6E3FF4" stroke="#6E3FF4"/>
</svg>
