<svg width="76" height="76" viewBox="0 0 76 76" fill="none" xmlns="http://www.w3.org/2000/svg">
<circle cx="38" cy="38" r="38" fill="#EA36E3" fill-opacity="0.1"/>
<path d="M37.5308 33.0091C38.1973 33.0091 38.7417 33.552 38.7417 34.2186C38.7417 34.8268 39.236 35.3198 39.8443 35.3198C40.4511 35.3198 40.9455 34.8268 40.9455 34.2186C40.9455 32.7244 39.972 31.4635 38.632 31.0024V30.3775C38.632 29.7707 38.139 29.2749 37.5308 29.2749C36.9211 29.2749 36.4281 29.7707 36.4281 30.3775V31.0024C35.0881 31.4635 34.1174 32.7244 34.1174 34.2186C34.1174 36.103 35.6477 37.6334 37.5308 37.6334C38.1973 37.6334 38.7417 38.1777 38.7417 38.8443C38.7417 39.5122 38.1973 40.0552 37.5308 40.0552C36.8642 40.0552 36.3212 39.5122 36.3212 38.8443C36.3212 38.236 35.8268 37.7417 35.2186 37.7417C34.609 37.7417 34.1174 38.236 34.1174 38.8443C34.1174 40.3385 35.0881 41.598 36.4281 42.0591V42.684C36.4281 43.2936 36.9211 43.7879 37.5308 43.7879C38.139 43.7879 38.632 43.2936 38.632 42.684V42.0591C39.972 41.598 40.9455 40.3385 40.9455 38.8443C40.9455 36.9612 39.4138 35.4295 37.5308 35.4295C36.8642 35.4295 36.3212 34.8866 36.3212 34.2186C36.3212 33.552 36.8642 33.0091 37.5308 33.0091ZM46.764 42.6506C47.3042 42.9353 47.9694 42.7284 48.2527 42.1924C49.1692 40.4607 49.6525 38.5027 49.6525 36.5308C49.6525 29.8485 44.213 24.4104 37.5308 24.4104C30.8471 24.4104 25.409 29.8485 25.409 36.5308C25.409 43.2144 30.8471 48.6525 37.5308 48.6525C39.4735 48.6525 41.4038 48.1831 43.1132 47.293C43.6534 47.0138 43.8631 46.3459 43.5826 45.8071C43.3021 45.2697 42.6369 45.0558 42.0953 45.3377C40.6803 46.0765 39.143 46.45 37.5308 46.45C32.0622 46.45 27.6115 42.0007 27.6115 36.5308C27.6115 31.0635 32.0622 26.6129 37.5308 26.6129C42.9993 26.6129 47.45 31.0635 47.45 36.5308C47.45 38.1458 47.0529 39.7469 46.3058 41.1606C46.0197 41.6994 46.2252 42.3659 46.764 42.6506ZM37.5308 20C34.3382 20 31.2387 20.9137 28.5683 22.6399C28.0558 22.9704 27.91 23.6522 28.2405 24.1632C28.5724 24.6743 29.2515 24.8187 29.7653 24.491C32.076 22.9968 34.7645 22.2052 37.5308 22.2052C45.4309 22.2052 51.8563 28.632 51.8563 36.5308C51.8563 44.4309 45.4309 50.8577 37.5308 50.8577C29.6306 50.8577 23.2038 44.4309 23.2038 36.5308C23.2038 33.7909 23.9801 31.126 25.4507 28.8278C25.7784 28.314 25.6284 27.6321 25.1146 27.3044C24.6022 26.9767 23.9204 27.1267 23.594 27.6391C21.8971 30.2928 21 33.3701 21 36.5308C21 45.6474 28.4141 53.0615 37.5308 53.0615C46.646 53.0615 54.0615 45.6474 54.0615 36.5308C54.0615 27.4169 46.646 20 37.5308 20Z" fill="#EA36E3"/>
</svg>
