<svg width="76" height="76" viewBox="0 0 76 76" fill="none" xmlns="http://www.w3.org/2000/svg">
<circle cx="38" cy="38" r="38" fill="#FBBE22" fill-opacity="0.1"/>
<path d="M51.1445 36.891L38.0945 23.841C37.5725 23.319 36.8475 23 36.05 23H25.9C24.305 23 23 24.305 23 25.9V36.05C23 36.8475 23.319 37.5725 23.8555 38.109L36.9055 51.159C37.4275 51.681 38.1525 52 38.95 52C39.7475 52 40.4725 51.681 40.9945 51.1445L51.1445 40.9945C51.681 40.4725 52 39.7475 52 38.95C52 38.1525 51.6665 37.413 51.1445 36.891ZM28.075 30.25C26.8715 30.25 25.9 29.2785 25.9 28.075C25.9 26.8715 26.8715 25.9 28.075 25.9C29.2785 25.9 30.25 26.8715 30.25 28.075C30.25 29.2785 29.2785 30.25 28.075 30.25ZM45.1415 42.2415L38.95 48.433L32.7585 42.2415C32.106 41.5745 31.7 40.6755 31.7 39.675C31.7 37.674 33.324 36.05 35.325 36.05C36.3255 36.05 37.239 36.456 37.8915 37.123L38.95 38.167L40.0085 37.1085C40.661 36.456 41.5745 36.05 42.575 36.05C44.576 36.05 46.2 37.674 46.2 39.675C46.2 40.6755 45.794 41.589 45.1415 42.2415Z" fill="#FBBE22"/>
</svg>
