<svg width="76" height="76" viewBox="0 0 76 76" fill="none" xmlns="http://www.w3.org/2000/svg">
<circle cx="38" cy="38" r="38" fill="#3CE8E8" fill-opacity="0.1"/>
<path d="M31.3077 37.56C30.3444 37.56 29.4598 37.3253 28.6538 36.856C27.8479 36.3867 27.1991 35.7511 26.7077 34.9493C26.2359 34.128 26 33.2382 26 32.28C26 31.3413 26.2457 30.4711 26.7372 29.6693C27.2286 28.848 27.8774 28.2027 28.6833 27.7333C29.509 27.2444 30.3838 27 31.3077 27C32.2709 27 33.1556 27.2347 33.9615 27.704C34.7675 28.1733 35.4064 28.8187 35.8782 29.64C36.3697 30.4418 36.6154 31.3218 36.6154 32.28C36.6154 33.2382 36.3697 34.128 35.8782 34.9493C35.4064 35.7511 34.7675 36.3867 33.9615 36.856C33.1556 37.3253 32.2709 37.56 31.3077 37.56ZM26.8846 45.92L45.4615 27.44L48.1154 30.1093L29.5385 48.56L26.8846 45.92ZM31.3077 34.6267C31.9564 34.6267 32.5068 34.4018 32.959 33.952C33.4308 33.4827 33.6667 32.9253 33.6667 32.28C33.6667 31.6347 33.4308 31.0871 32.959 30.6373C32.5068 30.168 31.9564 29.9333 31.3077 29.9333C30.659 29.9333 30.0987 30.168 29.6269 30.6373C29.1748 31.0871 28.9487 31.6347 28.9487 32.28C28.9487 32.9253 29.1748 33.4827 29.6269 33.952C30.0987 34.4018 30.659 34.6267 31.3077 34.6267ZM43.6923 49C42.7291 49 41.8444 48.7653 41.0385 48.296C40.2325 47.8267 39.5838 47.1911 39.0923 46.3893C38.6205 45.568 38.3846 44.6782 38.3846 43.72C38.3846 42.7813 38.6303 41.9111 39.1218 41.1093C39.6132 40.288 40.262 39.6427 41.0679 39.1733C41.8936 38.6844 42.7684 38.44 43.6923 38.44C44.6556 38.44 45.5402 38.6747 46.3462 39.144C47.1521 39.6133 47.791 40.2587 48.2628 41.08C48.7543 41.8818 49 42.7618 49 43.72C49 44.6782 48.7543 45.568 48.2628 46.3893C47.791 47.1911 47.1521 47.8267 46.3462 48.296C45.5402 48.7653 44.6556 49 43.6923 49ZM43.6923 46.0667C44.341 46.0667 44.8915 45.8418 45.3436 45.392C45.8154 44.9227 46.0513 44.3653 46.0513 43.72C46.0513 43.0747 45.8154 42.5271 45.3436 42.0773C44.8915 41.608 44.341 41.3733 43.6923 41.3733C43.0436 41.3733 42.4833 41.608 42.0115 42.0773C41.5594 42.5271 41.3333 43.0747 41.3333 43.72C41.3333 44.3653 41.5594 44.9227 42.0115 45.392C42.4833 45.8418 43.0436 46.0667 43.6923 46.0667Z" fill="#3CE8E8"/>
</svg>
